# xmcd CD database file
#
# Track frame offsets:
#	150
#	17460
#	41962
#	65510
#	87847
#	112675
#	127080
#	149042
#	166955
#	186237
#	207795
#	217675
#	258882
#	277312
#
# Disc length: 3896 seconds
#
# Revision: 0
# Processed by: cddbd v1.5.1PL0 Copyright (c) Steve Scherf et al.
# Submitted via: CDex 1.51
#
DISCID=cd0f360e
DTITLE=チューリップ - Live Act Tulip in Suzuran 2
DYEAR=1980
DGENRE=Pop
TTITLE0=（MC)
TTITLE1=Shooting Star
TTITLE2=虹とスニーカーの頃
TTITLE3=愛のかたみ
TTITLE4=娘が嫁ぐ朝
TTITLE5=あなたへのパスポート
TTITLE6=セクシー・ペティキュア
TTITLE7=博多っ子純情
TTITLE8=電車
TTITLE9=Wake Up
TTITLE10=いま、友へ
TTITLE11=ここはどこ
TTITLE12=風のメロディ
TTITLE13=一本の傘
EXTD=YEAR: 1980
EXTT0=
EXTT1=
EXTT2=
EXTT3=
EXTT4=
EXTT5=
EXTT6=
EXTT7=
EXTT8=
EXTT9=
EXTT10=
EXTT11=
EXTT12=
EXTT13=
PLAYORDER=
